<?xml version="1.0" encoding="iso-8859-1"?>
<!-- Uploaded to: SVG Repo, www.svgrepo.com, Generator: SVG Repo Mixer Tools -->
<svg version="1.1" id="Layer_1" xmlns="http://www.w3.org/2000/svg" xmlns:xlink="http://www.w3.org/1999/xlink" 
	 viewBox="0 0 512 512" xml:space="preserve">
<path style="fill:#2196F3;" d="M281.493,438.52H36.922c-14.111,0-25.551-11.439-25.551-25.551V270.747
	c0-14.111,11.439-25.551,25.551-25.551h244.569c14.111,0,25.551,11.439,25.551,25.551v142.221
	C307.043,427.081,295.604,438.52,281.493,438.52z"/>
<rect x="116.563" y="438.526" style="fill:#9E9E9E;" width="85.29" height="51.174"/>
<rect x="358.478" y="216.772" style="fill:#ECF0F1;" width="142.15" height="272.927"/>
<rect x="378.379" y="165.599" style="fill:#FFC107;" width="102.348" height="51.174"/>
<g>
	<path style="fill:#231F20;" d="M281.493,233.825H36.922C16.563,233.825,0,250.388,0,270.747v142.221
		c0,20.359,16.563,36.922,36.922,36.922h68.268v28.43H73.088c-6.281,0-11.372,5.091-11.372,11.372
		c0,6.281,5.091,11.372,11.372,11.372h172.24c6.281,0,11.372-5.091,11.372-11.372c0-6.281-5.091-11.372-11.372-11.372h-32.103
		v-28.43h68.268c20.359,0,36.923-16.563,36.923-36.922V270.747C318.415,250.388,301.852,233.825,281.493,233.825z M190.48,478.322
		h-62.546v-28.43h62.546V478.322z M281.493,427.148H36.922c-7.818,0-14.179-6.36-14.179-14.179V270.747
		c0-7.818,6.36-14.179,14.179-14.179h244.569c7.818,0,14.179,6.36,14.179,14.179v105.227H110.854
		c-6.281,0-11.372,5.091-11.372,11.372c0,6.281,5.091,11.372,11.372,11.372h184.817v14.251
		C295.671,420.788,289.311,427.148,281.493,427.148z"/>
	<path style="fill:#231F20;" d="M65.65,375.974h-5.686c-6.281,0-11.372,5.091-11.372,11.372c0,6.281,5.091,11.372,11.372,11.372
		h5.686c6.281,0,11.372-5.091,11.372-11.372C77.022,381.065,71.931,375.974,65.65,375.974z"/>
	<path style="fill:#231F20;" d="M500.628,205.395h-8.529v-39.802c0-6.281-5.091-11.372-11.372-11.372h-67.095v-51.932
		c0-6.281-5.091-11.372-11.372-11.372c-6.281,0-11.372,5.091-11.372,11.372v51.932h-12.509c-6.281,0-11.372,5.091-11.372,11.372
		v39.802h-8.529c-6.281,0-11.372,5.091-11.372,11.372v272.927c0,6.281,5.091,11.372,11.372,11.372h142.15
		c6.281,0,11.372-5.091,11.372-11.372V216.767C512,210.486,506.909,205.395,500.628,205.395z M389.751,176.965h79.604v28.43h-79.604
		V176.965z M489.256,478.322H369.85V228.139h119.406V478.322z"/>
	<path style="fill:#231F20;" d="M357.236,52.328c12.026-12.027,28.016-18.65,45.025-18.65c17.01,0,33.001,6.624,45.027,18.651
		c2.221,2.221,5.131,3.331,8.041,3.331c2.91,0,5.82-1.111,8.041-3.331c4.441-4.441,4.442-11.641,0-16.082
		c-16.321-16.323-38.024-25.313-61.11-25.313c-23.085,0-44.786,8.99-61.108,25.312c-4.441,4.441-4.441,11.641,0,16.082
		S352.794,56.769,357.236,52.328z"/>
	<path style="fill:#231F20;" d="M368.889,66.643c-4.441,4.441-4.441,11.641,0,16.083c4.441,4.442,11.642,4.441,16.083,0
		c9.533-9.534,25.043-9.534,34.576,0c2.221,2.221,5.131,3.331,8.041,3.331c2.91,0,5.821-1.11,8.041-3.331
		c4.441-4.441,4.441-11.641,0-16.083C417.231,48.243,387.29,48.243,368.889,66.643z"/>
	<path style="fill:#231F20;" d="M457.983,251.451h-56.86c-6.281,0-11.372,5.091-11.372,11.372c0,6.281,5.091,11.372,11.372,11.372
		h56.86c6.281,0,11.372-5.091,11.372-11.372C469.355,256.542,464.264,251.451,457.983,251.451z"/>
	<path style="fill:#231F20;" d="M457.983,296.939h-56.86c-6.281,0-11.372,5.091-11.372,11.372c0,6.281,5.091,11.372,11.372,11.372
		h56.86c6.281,0,11.372-5.091,11.372-11.372C469.355,302.03,464.264,296.939,457.983,296.939z"/>
	<path style="fill:#231F20;" d="M457.983,357.779c-6.281,0-11.372,5.091-11.372,11.372v9.098c0,6.281,5.091,11.372,11.372,11.372
		c6.281,0,11.372-5.091,11.372-11.372v-9.098C469.355,362.87,464.264,357.779,457.983,357.779z"/>
	<path style="fill:#231F20;" d="M415.907,423.168h-14.784c-6.281,0-11.372,5.091-11.372,11.372s5.091,11.372,11.372,11.372h14.784
		c6.281,0,11.372-5.091,11.372-11.372S422.188,423.168,415.907,423.168z"/>
</g>
</svg>